<?xml version="1.0" standalone="no"?>
<!DOCTYPE svg PUBLIC "-//W3C//DTD SVG 20010904//EN"
 "http://www.w3.org/TR/2001/REC-SVG-20010904/DTD/svg10.dtd">
<svg version="1.0" xmlns="http://www.w3.org/2000/svg"
 width="400.000000pt" height="400.000000pt" viewBox="0 0 400.000000 400.000000"
 preserveAspectRatio="xMidYMid meet">
<metadata>
Created by potrace 1.11, written by Peter Selinger 2001-2013
</metadata>
<g transform="translate(0.000000,400.000000) scale(0.100000,-0.100000)"
fill="#000000" stroke="none">
<path d="M140 2986 c0 -3 158 -230 350 -506 l350 -502 0 -379 0 -379 110 0
110 0 0 378 1 377 354 503 c195 276 355 504 355 507 0 3 -62 5 -137 5 l-138
-1 -265 -384 c-146 -211 -268 -384 -271 -385 -4 0 -127 173 -275 385 l-268
385 -138 0 c-76 0 -138 -2 -138 -4z"/>
<path d="M2050 2105 l0 -885 110 0 110 0 0 582 c0 330 4 578 9 572 4 -5 102
-250 216 -544 114 -294 214 -552 222 -572 l15 -38 182 0 181 0 222 573 222
572 1 -572 0 -573 110 0 110 0 0 885 0 885 -109 0 -109 0 -35 -87 c-19 -49
-160 -405 -312 -793 -153 -388 -280 -708 -284 -712 -3 -3 -148 353 -320 793
l-315 799 -113 0 -113 0 0 -885z"/>
</g>
</svg>
